<svg width="53" height="35" viewBox="0 0 53 35" fill="none" xmlns="http://www.w3.org/2000/svg">
<g clip-path="url(#clip0_911_1302)">
<path d="M49.3452 1.09375C49.3452 1.69781 49.8349 2.1875 50.439 2.1875H51.5327C52.1368 2.1875 52.6265 1.69781 52.6265 1.09375C52.6265 0.489689 52.1368 0 51.5327 0H50.439C49.8349 0 49.3452 0.489689 49.3452 1.09375Z" fill="#151515"/>
<path d="M17.6265 35H22.9397L21.3929 33.4532C20.9827 33.043 20.4263 32.8125 19.8462 32.8125H17.6265C9.16959 32.8125 2.31396 25.9569 2.31396 17.5C2.31396 9.04313 9.16959 2.18751 17.6265 2.1875H35.1265C43.5833 2.1875 50.439 9.04313 50.439 17.5C50.439 25.9569 43.5833 32.8125 35.1265 32.8125H28.5801C27.7098 32.8125 26.8752 32.4668 26.2598 31.8515L24.4477 30.0393C23.4221 29.0137 22.031 28.4375 20.5806 28.4375H17.6265C11.5858 28.4375 6.68896 23.5406 6.68896 17.5C6.68896 11.4593 11.5858 6.5625 17.6265 6.5625H35.1265C41.1671 6.5625 46.064 11.4593 46.064 17.5C46.064 23.5406 41.1671 28.4375 35.1265 28.4375H30.923C30.0528 28.4375 29.2182 28.0918 28.6028 27.4765L26.7906 25.6643C25.765 24.6387 24.374 24.0625 22.9236 24.0625H17.6265C14.0021 24.0625 11.064 21.1243 11.064 17.5C11.064 13.8757 14.0021 10.9375 17.6265 10.9375H35.1265C38.7508 10.9375 41.689 13.8757 41.689 17.5C41.689 21.0802 38.822 23.9908 35.2588 24.0612L35.2581 24.0625H33.6574C32.7872 24.0625 31.9526 23.7168 31.3372 23.1015L29.525 21.2893C28.6835 20.4477 27.596 19.9088 26.4314 19.7424L26.3765 19.6875H17.6265C16.4184 19.6875 15.439 18.7081 15.439 17.5C15.439 16.2919 16.4184 15.3125 17.6265 15.3125H35.1265C36.3346 15.3125 37.314 16.2919 37.314 17.5C37.314 18.7081 36.3346 19.6875 35.1265 19.6875H30.7515L32.2983 21.2343C32.7085 21.6445 33.2649 21.875 33.845 21.875H35.1265C37.5427 21.875 39.5015 19.9162 39.5015 17.5C39.5015 15.0838 37.5427 13.125 35.1265 13.125H17.6265C15.2102 13.125 13.2515 15.0838 13.2515 17.5C13.2515 19.9162 15.2102 21.875 17.6265 21.875H25.658C26.5283 21.875 27.3629 22.2207 27.9782 22.836L29.7905 24.6482C30.816 25.6738 32.207 26.25 33.6574 26.25H35.6733V26.2332C40.2511 25.9509 43.8765 22.1488 43.8765 17.5C43.8765 12.6676 39.9589 8.75 35.1265 8.75H17.6265C12.794 8.75 8.87646 12.6676 8.87646 17.5C8.87646 22.3325 12.794 26.25 17.6265 26.25H22.9236C23.7939 26.25 24.6285 26.5957 25.2439 27.211L27.0561 29.0232C28.0817 30.0488 29.4727 30.625 30.923 30.625H35.1265C42.3752 30.625 48.2515 24.7488 48.2515 17.5C48.2515 10.2512 42.3752 4.375 35.1265 4.375H17.6265C10.3777 4.375 4.50146 10.2512 4.50146 17.5C4.50146 24.7488 10.3777 30.625 17.6265 30.625H20.5806C21.4509 30.625 22.2855 30.9707 22.9009 31.586L24.7131 33.3982C25.7387 34.4238 27.1297 35 28.5801 35H35.1265C44.7915 35 52.6265 27.165 52.6265 17.5C52.6265 7.83501 44.7915 -8.44939e-07 35.1265 0L17.6265 3.61606e-06C7.96148 4.461e-06 0.126464 7.83502 0.126465 17.5C0.126466 27.165 7.96149 35 17.6265 35Z" fill="#151515"/>
</g>
<defs>
<clipPath id="clip0_911_1302">
<rect width="52.5" height="35" fill="white" transform="translate(0.126465)"/>
</clipPath>
</defs>
</svg>
